<?xml version="1.0" encoding="UTF-8" standalone="no"?>
<!-- Generator: Adobe Illustrator 24.1.0, SVG Export Plug-In . SVG Version: 6.00 Build 0)  -->

<svg
   xmlns:dc="http://purl.org/dc/elements/1.1/"
   xmlns:cc="http://creativecommons.org/ns#"
   xmlns:rdf="http://www.w3.org/1999/02/22-rdf-syntax-ns#"
   xmlns:svg="http://www.w3.org/2000/svg"
   xmlns="http://www.w3.org/2000/svg"
   xmlns:sodipodi="http://sodipodi.sourceforge.net/DTD/sodipodi-0.dtd"
   xmlns:inkscape="http://www.inkscape.org/namespaces/inkscape"
   version="1.1"
   id="Plan_1"
   preserveAspectRatio="xMinYMin meet"
   width="125"
   viewBox="0 0 484 438"
   xml:space="preserve"
   sodipodi:docname="ayent.svg"
   inkscape:version="0.92.4 (5da689c313, 2019-01-14)"><metadata
   id="metadata57"><rdf:RDF><cc:Work
       rdf:about=""><dc:format>image/svg+xml</dc:format><dc:type
         rdf:resource="http://purl.org/dc/dcmitype/StillImage" /></cc:Work></rdf:RDF></metadata><defs
   id="defs55" /><sodipodi:namedview
   pagecolor="#ffffff"
   bordercolor="#666666"
   borderopacity="1"
   objecttolerance="10"
   gridtolerance="10"
   guidetolerance="10"
   inkscape:pageopacity="0"
   inkscape:pageshadow="2"
   inkscape:window-width="1920"
   inkscape:window-height="1017"
   id="namedview53"
   showgrid="false"
   inkscape:zoom="0.39663866"
   inkscape:cx="241.67"
   inkscape:cy="219.36334"
   inkscape:window-x="-8"
   inkscape:window-y="-8"
   inkscape:window-maximized="1"
   inkscape:current-layer="Plan_1" />
<style
   type="text/css"
   id="style2">
	.st0{fill-rule:evenodd;clip-rule:evenodd;fill:#FFCE00;}
	.st1{fill-rule:evenodd;clip-rule:evenodd;fill:#E63616;}
	.st2{fill-rule:evenodd;clip-rule:evenodd;fill:none;stroke:#FFFFFF;stroke-width:1.4173;stroke-miterlimit:22.9256;}
	.st3{fill-rule:evenodd;clip-rule:evenodd;fill:none;stroke:#FFFFFF;stroke-width:0.7087;stroke-miterlimit:22.9256;}
	.st4{fill-rule:evenodd;clip-rule:evenodd;}
	.st5{fill-rule:evenodd;clip-rule:evenodd;fill:#FFFFFF;stroke:#FFFFFF;stroke-width:0.2835;stroke-miterlimit:22.9256;}
	.st6{fill-rule:evenodd;clip-rule:evenodd;fill:#CECDC1;}
</style>
<g
   id="g50"
   transform="translate(-179.33,-78.13)">
	<path
   class="st0"
   d="m 278.37,456.98 53.98,-11.79 c -3.74,11.34 0.91,11.95 -4.11,23.29 12.76,-8.44 20.11,-11.99 29.81,-27.77 7.95,8.34 -3.23,12.74 -0.69,23.7 25.93,-10.92 39.57,-28.11 42.12,-37.85 -25.93,-10.44 -28,-34.89 -14.24,-55.97 -7.47,4.68 -20.06,2.48 -20.1,37.36 -14.24,-5.12 -20.39,-15.09 -19.27,-27.07 -16.87,4.75 -86.69,30.83 -107.62,46.87 l -18.4,-14.73 c -8.25,2.88 -11.31,7.58 -12.96,18.46 6.62,-0.56 14.49,2.63 19.54,6.73 l -2.98,2.01 c -7.56,-3.96 -17.74,-5.84 -24.62,-3.55 -7.62,8.03 -3.75,18.12 3.59,26.49 9.31,2.05 11.9,-7.18 29.77,-8.88 l 1.28,2.4 c -7.86,3.69 -23.3,6.79 -26.37,12.83 -2.19,13.47 12.03,23.59 22.18,22.21 4.49,-5.6 6.75,-12.91 11.24,-18.51 3.61,-4.51 10.23,-8.57 14.01,-13.05 l 5.4,0.34 c 1.29,6.3 -0.52,5.22 -2.21,7.72 0.34,10.99 20.29,11.78 24.55,3.48 1.88,-3.85 -0.8,-9.26 -3.9,-14.72 z"
   id="path4"
   inkscape:connector-curvature="0"
   style="clip-rule:evenodd;fill:#ffce00;fill-rule:evenodd" />
	<path
   class="st0"
   d="m 322.86,361.7 c -7.07,-0.82 -20.98,-0.71 -33.2,1.78 -5.61,1.15 -11.11,3.2 -14.36,5.65 0.76,-4.85 3.62,-8.55 6.92,-12.64 -13.91,0.83 -21.45,2.57 -31.2,7.56 -5.61,8.7 -15.83,11.32 -18.88,6.7 2.01,-2.76 5.55,-15.47 7.43,-18.28 3.65,-1.3 7.48,-5.82 11.44,-12.64 -4.03,-0.53 -7.73,-0.47 -11.64,-1.69 -2.8,-0.88 -3.91,-3.09 -5.31,-7.21 -9.58,-4.56 -10.55,-1.85 -13.98,-2.66 -0.91,-4.27 6.65,-8.54 11.92,-9.66 -0.92,-5.53 -5.98,-13.64 -10.01,-14.71 2.99,-4.59 6.81,-3.22 13.55,2.76 l 14.98,7.71 31.47,0.32 c 18.5,-2.78 35.61,-4.29 52.5,-8.15 -14.35,10.21 -19.9,26.63 -11.63,55.16 z"
   id="path6"
   inkscape:connector-curvature="0"
   style="clip-rule:evenodd;fill:#ffce00;fill-rule:evenodd" />
	<path
   class="st0"
   d="m 585.7,514 c 0.68,-3.14 0.86,-6.31 0.44,-9.93 11.16,22.83 39.83,11.15 52.1,-4.39 28.93,-36.62 31.19,-80.23 9.42,-120.84 11.47,-7.1 17.39,-27.54 14.13,-32.78 -8.41,-13.5 -17.47,-14.89 -27.15,-21.35 -22.05,-14.73 -6.05,-46.76 1.21,-67.3 -33.06,23.94 -47.04,73.98 -6.21,96.75 -20.79,6.79 -31,-0.84 -38.67,-15.36 -2.2,29.38 13.13,30.87 28.38,30.57 -11.5,8.87 -26.5,5.63 -31.61,3.64 13.09,23.07 33.34,16.51 41.48,13.84 4.08,0.88 7.05,2.92 10.29,6.94 20.48,24.9 11.43,51.73 1.27,80.11 1.8,-17.59 3.79,-38.25 -1.13,-49.18 -12.76,-28.35 -46.57,-1.67 -66.97,-29.48 -5.09,17.16 20.09,40.42 39.44,36.44 -15.5,8.95 -16.81,16.61 -12.88,27.57 8.5,-29.45 53.98,-4.89 32.23,27.45 -10.84,16.12 -27.81,28.52 -56.05,-13.21 -18.34,-26.74 -48.47,-35.94 -45.26,-84.42 -7.4,33.86 -29.71,37.01 -30.04,34.1 21.77,-19.13 -29.06,-40.87 -25.53,-56.93 -17.65,16.77 -6.62,46.86 3.08,64.78 -51.59,-5.25 -49.91,-47.7 -50.18,-58.49 -16.39,15.8 -31.29,32.5 -23.02,50.83 15.28,29.69 43.41,31.35 45.28,31.49 31.91,2.39 60.5,21.16 65.64,40.43 l 15.39,-7.28 0.81,3.57 c -12.33,4.86 -25.12,13.57 -34.59,22.45 z"
   id="path8"
   inkscape:connector-curvature="0"
   style="clip-rule:evenodd;fill:#ffce00;fill-rule:evenodd" />
	<path
   class="st0"
   d="m 450.29,265.71 c -6.28,16.65 -17.71,23.55 -28.03,28.91 21.53,-1.8 45.38,-5.83 42.14,-35.63 6.59,4.38 22.08,18.34 27.87,34.86 6.9,-22.51 -9.51,-26.66 -17.27,-46.57 10.43,6.35 31.49,10.7 38.38,27.21 1.02,-24.62 -16.26,-39.61 -30.71,-45.85 22.83,-2.7 32.68,-5.88 36.06,-12.71 -19.56,6.66 -15.13,-14.34 -52.2,-4.82 16.3,-12.65 34.52,-33.59 -4.02,-53.57 -26.45,-5.01 -43.2,-0.27 -56.32,10.74 l -23.06,3.23 -0.41,8.59 c 14.96,-0.13 17.2,1.48 16.06,7.5 -1.09,5.76 -7.35,1.61 -16.72,-2.12 l -3.35,21.01 c -0.67,7.09 13.91,9.22 30.1,10.6 8.45,-2.12 9.38,-8.72 16.09,-8.58 17.24,-1.33 19.06,8.76 17.89,17.91 -1.5,11.77 -8.45,17.4 -18.67,17.67 -13.98,0.04 -41.04,-8.13 -42.31,-3.35 -2.41,8.26 -0.23,12.39 1.96,17.78 11.41,3.46 22.64,4.46 33.1,3.47 8.51,-0.8 32.19,2.64 35.98,-28.9 4.38,16.49 2.62,26.52 -2.56,32.62 z M 473.1,159.12 c 3.82,0.8 4.72,1.32 9.54,2.65 7.19,-3.64 17.82,-2.69 22.95,2.89 4.34,4.72 10.67,17.55 0.66,21.01 l 0.24,9.85 c 18.29,-0.78 27.15,5.8 34.63,22.01 6.24,13.04 13.96,15.76 30.81,10.46 -3.47,17.23 -23.97,24.34 -39.83,11.61 16.56,28.1 35.43,25.11 50.45,23.83 -3.37,16.99 -23.27,18.77 -46.46,13.89 21.45,8 47.01,20.52 43.75,54.05 -6.7,-6.7 -32.14,-16.2 -41.93,-15.18 18,14.73 28.98,35.39 19.18,60.89 -7.49,-23.65 -16.71,-32.99 -35.02,-36.56 9.2,32.02 3.36,66.71 -15.13,77.17 19.64,-22.76 -45.85,-34.49 -20.08,-67.62 -42.62,23.64 -24.94,63.83 -15.96,75.94 -38.22,-8.18 -40.19,-45.05 -34.57,-70.19 -21.78,21.16 -47.48,42.35 -36.83,65.79 -23.45,-15.04 -21.45,-30.85 -4.13,-59.22 -20.33,6.94 -34.98,3.17 -34.12,38.46 -10,-1.82 -25.94,-38.7 17.6,-63.5 -18.71,-2.01 -37.29,2.67 -48.73,29.8 -12.49,-39.95 0.49,-57.01 26.71,-66.28 9.54,-3.37 22.85,-6.63 34.06,-8.53 -4.71,-2.39 -8.7,-5.05 -25.37,-2.78 18.63,-19.16 43.41,-9.93 65.71,-14.94 4.6,-1.03 8.36,-2.25 11.94,-4.28 -10.29,15.36 -19.04,17.74 -34.76,27.31 8.33,3.25 58.83,6.75 60.94,-28.03 8.37,7.9 16.6,17.55 23.05,33.67 16.01,-22.8 -1.3,-35.68 -6.74,-46.27 5.93,3.3 25.28,11.01 27.75,28.04 11.92,-8.79 1.2,-42.14 -17.6,-54.03 16.4,-2.05 26.52,-5.99 26.62,-20.06 -25.53,7.7 -12.8,-10.65 -42.1,-6.63 7.62,-5.94 22.11,-27.03 -7.23,-45.22 z"
   id="path10"
   inkscape:connector-curvature="0"
   style="clip-rule:evenodd;fill:#ffce00;fill-rule:evenodd" />
	<path
   class="st1"
   d="m 207.42,481.64 c -4.29,6.83 -3.72,14.1 1.24,21.78 2.62,-8.86 5.84,-12.57 9.57,-11.92 -6.96,-3.14 -8.61,-6.23 -10.81,-9.86 z"
   id="path12"
   inkscape:connector-curvature="0"
   style="clip-rule:evenodd;fill:#e63616;fill-rule:evenodd" />
	<path
   class="st1"
   d="m 193.18,441.5 c -7.78,2.12 -12.3,7.85 -13.85,16.85 7.93,-4.74 12.81,-5.28 15.11,-2.27 -3.02,-5.22 -2.6,-10.35 -1.26,-14.58 z"
   id="path14"
   inkscape:connector-curvature="0"
   style="clip-rule:evenodd;fill:#e63616;fill-rule:evenodd" />
	<path
   class="st1"
   d="m 213.04,414.24 c -7.61,-2.67 -14.58,-0.32 -20.97,6.21 9.22,0.6 13.55,2.92 13.74,6.7 1.88,-6.48 3.1,-9.31 7.23,-12.91 z"
   id="path16"
   inkscape:connector-curvature="0"
   style="clip-rule:evenodd;fill:#e63616;fill-rule:evenodd" />
	<path
   class="st1"
   d="m 278.99,477.77 c -1.11,7.99 -6.22,13.19 -14.96,15.88 3.69,-8.47 3.61,-13.38 0.34,-15.28 6.9,0.98 9.68,1.15 14.62,-0.6 z"
   id="path18"
   inkscape:connector-curvature="0"
   style="clip-rule:evenodd;fill:#e63616;fill-rule:evenodd" />
	<path
   class="st1"
   d="m 220.32,306.44 c -5.31,5.41 -6.26,12.21 -3.25,20.26 4.19,-7.61 7.9,-10.37 11.19,-9.02 -1.65,-6.45 -4.36,-10.02 -7.94,-11.24 z"
   id="path20"
   inkscape:connector-curvature="0"
   style="clip-rule:evenodd;fill:#e63616;fill-rule:evenodd" />
	<path
   class="st1"
   d="m 227.01,347.64 c 7.49,2.17 14.1,-0.28 19.92,-6.93 -8.93,-0.09 -13.23,-2.1 -13.62,-5.74 -5.02,4.64 -6.93,8.83 -6.3,12.67 z"
   id="path22"
   inkscape:connector-curvature="0"
   style="clip-rule:evenodd;fill:#e63616;fill-rule:evenodd" />
	<path
   class="st1"
   d="m 219.3,360.31 c 6.9,0.28 12.07,-3.24 15.67,-10.19 -7.71,1.82 -11.83,1.01 -12.94,-2.05 -3.34,5.06 -4.09,9.08 -2.73,12.24 z"
   id="path24"
   inkscape:connector-curvature="0"
   style="clip-rule:evenodd;fill:#e63616;fill-rule:evenodd" />
	<path
   class="st1"
   d="m 327.73,195.52 c 7.23,29.84 67.76,30.49 98.54,29.89 l 0.05,4.72 -36.75,-0.81 c -22.68,4.15 -84.06,4.92 -61.84,-33.8 z"
   id="path26"
   inkscape:connector-curvature="0"
   style="clip-rule:evenodd;fill:#e63616;fill-rule:evenodd" />
	<path
   class="st1"
   d="m 220.32,374.89 c 6.96,-2.05 10.91,-7.29 12.13,-15.42 -7.04,4.41 -11.42,4.99 -13.55,2.34 -1.61,6.15 -1,10.39 1.42,13.08 z"
   id="path28"
   inkscape:connector-curvature="0"
   style="clip-rule:evenodd;fill:#e63616;fill-rule:evenodd" />
	<path
   class="st2"
   d="m 490.32,166.76 c 10.37,-0.5 13.62,5.75 11.25,13.87"
   id="path30"
   inkscape:connector-curvature="0"
   style="clip-rule:evenodd;fill:none;fill-rule:evenodd;stroke:#ffffff;stroke-width:1.41729999;stroke-miterlimit:22.92560005" />
	<path
   class="st3"
   d="m 402.66,173.76 c 15.19,-6.03 28.31,-5.57 39.13,2.05 L 425.6,188.1 c -5.43,-6.72 -13.14,-11.45 -22.94,-14.34 z"
   id="path32"
   inkscape:connector-curvature="0"
   style="clip-rule:evenodd;fill:none;fill-rule:evenodd;stroke:#ffffff;stroke-width:0.7087;stroke-miterlimit:22.92560005" />
	<path
   class="st4"
   d="m 426.14,171.93 c 0.49,0.84 0.68,1.56 0.68,2.54 0,3.06 -2.48,5.54 -5.54,5.54 -3.06,0 -5.54,-2.48 -5.54,-5.54 0,-0.9 0.22,-1.79 0.64,-2.59 2.66,-0.52 7.13,-0.46 9.76,0.05 z"
   id="path34"
   inkscape:connector-curvature="0"
   style="clip-rule:evenodd;fill-rule:evenodd" />
	<path
   class="st5"
   d="m 421.19,176.87 c 1.23,0 2.24,-1.01 2.24,-2.24 0,-1.23 -1.01,-2.24 -2.24,-2.24 -1.23,0 -2.24,1.01 -2.24,2.24 0,1.23 1,2.24 2.24,2.24 z"
   id="path36"
   inkscape:connector-curvature="0"
   style="clip-rule:evenodd;fill:#ffffff;fill-rule:evenodd;stroke:#ffffff;stroke-width:0.28349999;stroke-miterlimit:22.92560005" />
	<path
   class="st6"
   d="m 270.74,289.46 c 8.58,2.19 17.97,2.9 28.36,2.17 l 0.22,13.6 c -32.47,1.32 -60.66,-9.63 -72.92,-35.68 l 9.14,-9.37 c 4.71,9.74 10.86,17.04 18.94,22.07 l 97.01,-186.2 18.7,-17.92 -4.67,24.15 z"
   id="path38"
   inkscape:connector-curvature="0"
   style="clip-rule:evenodd;fill:#cecdc1;fill-rule:evenodd" />
	<polygon
   class="st6"
   points="255.41,312.54 260.82,302.97 245.94,295.56 242.08,305.04 "
   id="polygon40"
   style="clip-rule:evenodd;fill:#cecdc1;fill-rule:evenodd" />
	<path
   class="st6"
   d="m 224.72,376.67 c -7.27,2.47 -17.58,4.55 -24.49,0.81 l -5.36,10.56 7.75,9.92 12.58,-3.62 z"
   id="path42"
   inkscape:connector-curvature="0"
   style="clip-rule:evenodd;fill:#cecdc1;fill-rule:evenodd" />
	<path
   class="st0"
   d="m 214.77,359.22 c -4.8,-0.92 -11.78,-2.32 -15.54,-5.99 -2.36,-3.55 -2.77,-13.78 4.3,-14.04 3.74,2.42 4.55,1.66 14.57,7.56 -2.61,4.04 -3.58,7.28 -3.33,12.47 z"
   id="path44"
   inkscape:connector-curvature="0"
   style="clip-rule:evenodd;fill:#ffce00;fill-rule:evenodd" />
	<path
   class="st0"
   d="m 223.19,345.14 c -4.11,0.03 -12.93,-5.81 -17.61,-9.07 -1.85,-6.2 -1.61,-11.41 5.16,-12.89 2.52,0.35 1.02,3.88 4.2,6.13 3.22,2.27 9.65,-0.12 15.25,3.03 -3.49,1.91 -6.91,7.16 -7,12.8 z"
   id="path46"
   inkscape:connector-curvature="0"
   style="clip-rule:evenodd;fill:#ffce00;fill-rule:evenodd" />
	<path
   class="st0"
   d="m 215.15,374.17 c -4.82,0.79 -11.35,3.57 -16.34,-0.1 -3.43,-2.52 -7.34,-11.99 -0.79,-14.66 3.79,-1.3 5.01,0.33 16.45,2.43 -1.07,4.69 -1.34,7.54 0.68,12.33 z"
   id="path48"
   inkscape:connector-curvature="0"
   style="clip-rule:evenodd;fill:#ffce00;fill-rule:evenodd" />
</g>
</svg>
