<?xml version="1.0" encoding="utf-8"?>
<!-- Generator: Adobe Illustrator 24.3.0, SVG Export Plug-In . SVG Version: 6.00 Build 0)  -->
<svg version="1.1" id="Calque_1" xmlns="http://www.w3.org/2000/svg" xmlns:xlink="http://www.w3.org/1999/xlink" x="0px" y="0px"
	 viewBox="0 0 618 232.7" style="enable-background:new 0 0 618 232.7;" xml:space="preserve">
<style type="text/css">
	.st0{fill:#5480BE;}
	.st1{fill:#FFFFFF;}
</style>
<g>
	<path class="st0" d="M97.7,146c0.9,0.6,1.6,1.1,2.4,1.6c6.5,4.7,13,9.5,19.5,14.2c0.8,0.6,1.9,1.3,2.8,1.3
		c5.1-0.1,10.2,0.2,15.1-0.8c13.8-2.6,24.4-10.5,33-21.2c3.5-4.3,6.4-9,9.8-13.9c-5.9,0-11,0.4-16.1-0.1c-5-0.5-9.9-2.1-14.9-3.1
		c1.7,5.4,3.4,10.7,5.2,16.1c-1.2-0.2-1.8-0.6-2.5-1.1c-5.3-3.8-10.7-7.7-15.9-11.6c-1.2-0.9-2-0.9-3.2,0
		c-5.2,3.9-10.5,7.7-15.7,11.5c-0.7,0.5-1.5,1-2.3,1.6c-0.1-1.2,0.1-2,0.4-2.8c2-6.2,4-12.4,6.1-18.6c0.4-1.3,0.3-2-0.9-2.8
		c-3.1-2.1-6.1-4.4-9.2-6.6c-3-2.2-5.9-4.3-8.9-6.5c1-0.6,1.8-0.7,2.7-0.7c6.4,0,12.8,0,19.2,0c1.7,0,2.6-0.4,3.1-2.2
		c0.9-3.5,2.2-6.9,3.3-10.3c1.1-3.5,2.3-6.9,3.7-11c0.5,1.4,0.8,2.1,1,2.9c2,6.1,4,12.3,6.1,18.4c0.3,0.9,1.3,2,2.1,2.1
		c5.7,0.7,11,0,15.4-4.4c3.7-3.8,7.7-7.3,10.7-12c-23.5-1.4-41.4-12.1-55.1-31.2c12.9-1.6,19.8-3.8,24.3-7.7
		c-20.2-3.2-31.3-17.6-41.1-33.7c-9.9,16.2-21,30.4-41.2,34c3.7,1.9,7.4,4,11.4,5.2c4,1.2,8.2,1.6,12.7,2.5
		c-13.6,18.7-31.5,29.5-55,30.8c4.6,6.7,10.1,12,16.7,16.2c0.6,0.4,1.4,0.3,2.1,0.4c2.1,0,4.3-0.1,6.4,0c1.7,0.1,2.5-0.5,3-2.1
		c0.7-2.7,1.7-5.3,2.5-7.9c1.4-4.2,2.8-8.4,4.2-12.6c0.9,0.7,1.2,1.4,1.4,2.2c2,6.1,4,12.1,5.9,18.2c0.6,1.9,1.5,2.4,3.3,2.3
		c6.4-0.1,12.8,0,19.2,0c0.8,0,1.6,0.1,3.1,0.3c-1.4,1-2.1,1.7-2.9,2.2c-5.1,3.7-10.2,7.5-15.4,11.1c-1.4,1-1.6,1.9-1,3.4
		c1.9,5.5,3.6,11,5.4,16.5c0.5,1.4,0.8,2.8,1.2,4.3c-0.2,0.1-0.3,0.2-0.5,0.3c-6.5-4.7-13-9.4-19.4-14.1c-6.6,4.7-13,9.4-19.4,14
		c-0.2-0.1-0.4-0.3-0.6-0.4c1.7-5.4,3.4-10.7,5.3-16.6c-10.1,4.1-20.1,4.9-30.7,3.5c3.5,6.8,7.5,12.6,12.4,17.8
		c11.1,11.8,24.4,18.9,41,18.6c3.2,0,6-0.7,8.6-2.7C84.2,155.7,90.9,151,97.7,146z M117.2,212.4c-0.1-0.1-0.3-0.3-0.4-0.4
		c0.2-0.6,0.3-1.2,0.5-1.8c2.4-7.3,4.7-14.6,7.1-21.9c0.4-1.2,0.4-2-0.8-2.8c-8.2-5.9-16.4-11.8-24.5-17.8c-1-0.8-1.8-0.7-2.8,0
		c-8.1,5.9-16.2,11.8-24.3,17.6c-1.2,0.9-1.4,1.7-0.9,3.1c2.4,7.1,4.7,14.3,7,21.4c0.3,0.8,0.4,1.6,0.8,3c-1.3-0.9-2-1.3-2.6-1.8
		c-5.7-4.1-11.5-8.2-17.1-12.5c-2.1-1.7-3.5-1.4-5.5,0.1c-4.9,3.8-10,7.4-15.1,11.1c-3.1,2.3-6.3,4.6-9.8,7.1c46.1,0,91.7,0,137.4,0
		c-0.3-0.3-0.4-0.5-0.6-0.7c-8.5-6.2-17-12.4-25.5-18.5c-0.6-0.4-2.1-0.3-2.7,0.1c-3.9,2.6-7.6,5.4-11.4,8.2
		C123.2,208.1,120.2,210.2,117.2,212.4z M235.8,106.8c6.7,9.4,22.3,14,33.1,9.4c6.5-2.8,10.6-7.6,11.7-14.7c1.2-7.8-1.2-14.4-8-18.7
		c-3.8-2.4-8-4-12-6.1c-3.1-1.6-6.4-3-9.2-5.1c-4.6-3.4-4.5-9.5,0.1-13c3.1-2.4,6.9-3.4,10.7-2.4c3.5,0.9,6.8,2.5,10.5,3.8
		c1.5-1.8,3.3-4,5-6.2c-7.4-7.1-20.3-9.1-29-4.5c-6.7,3.5-10.5,9.1-10.2,16.9c0.3,6.9,4.1,11.7,9.9,14.8c3.8,2.1,7.9,3.5,11.8,5.5
		c2.9,1.5,5.9,3.1,8.2,5.2c3.9,3.5,3.9,9.4,0.3,13.2c-3.7,4-8.5,4.6-13.6,3.6c-5.4-1-9.5-4.3-13.1-8.3
		C240,102.4,237.9,104.6,235.8,106.8z M327.5,74.6c-1-0.7-1.6-1.1-2.2-1.4c-6.6-4.1-13.6-4.7-20.7-2c-10.6,4-16.4,15.2-14.4,27.2
		c2.8,16.9,22.1,25.2,36.1,15.5c0.7-0.5,2.1-0.6,3-0.3c2.4,0.9,4.7,2.1,7.3,3.3c0-15.5,0-30.7,0-46c-3,0-5.9,0-8.8,0
		C327.7,72.1,327.6,73.2,327.5,74.6z M440.7,216.7c0-9.8,0.7-19.4-0.2-28.8c-1.5-16.3-20.4-24.1-33.3-14.2c-1.2,0.9-2,1-3.3,0.3
		c-2.2-1.2-4.5-2.2-6.8-3.3c0,15.6,0,30.8,0,45.9c3,0,5.6,0,8.6,0c0-1.1,0-2.1,0-3c0-8.9,0-17.7,0-26.6c0-1,0.3-2.2,0.9-2.9
		c3.1-3.8,7.2-5.9,12.1-6.1c7.5-0.4,13.1,5.3,13.2,13.3c0.1,7.5,0,15.1,0,22.6c0,0.9,0,1.7,0,2.7
		C435.2,216.7,438.1,216.7,440.7,216.7z M380.4,116.9c2.3,0,4.2-0.1,6.2,0c2.1,0.2,2.6-0.7,2.6-2.7c-0.1-8.2,0.3-16.4-0.2-24.6
		c-0.2-4.6,1.8-7.1,5.3-9c1.5-0.8,3.1-1.5,4.7-2c8.6-2.2,16.1,3.5,16.2,12.4c0.1,4,0,8,0,12.1c0,4.5,0,9,0,13.6c3.2,0,6,0,9.1,0
		c0-8.8,0.2-17.4,0-26c-0.2-8.4-3.9-15.1-11.6-18.8c-7.7-3.7-15.3-3.2-22.2,2c-1.2,0.9-2.1,0.9-3.3,0.2c-2.2-1.1-4.4-2.1-6.8-3.3
		C380.4,86.3,380.4,101.5,380.4,116.9z M236.2,147.6c0,23.3,0,46.1,0,69c13.5,0,26.9,0,40.3,0c0-3,0-5.9,0-8.9c-1,0-1.9,0-2.8,0
		c-8.3,0-16.6-0.1-24.9,0.1c-2.5,0-3.2-0.6-3.2-3.1c0.1-18,0.1-35.9,0.1-53.9c0-1,0-1.9,0-3c-0.9-0.1-1.6-0.2-2.2-0.2
		C241.1,147.6,238.7,147.6,236.2,147.6z M454,78.7c3.2,0,6.1,0,9,0c6,0,6,0,5.8-6.1c0-1.5-0.5-2-2-2c-3.4,0.1-6.7-0.1-10.1,0
		c-2.1,0.1-2.9-0.5-2.8-2.7c0.2-3.2,0.1-6.5,0.1-10.1c-2.5,0-4.7,0.1-6.9,0c-1.7-0.1-2.4,0.5-2.3,2.2c0.1,1.5,0,3.1,0,4.7
		c0,5.9,0,5.9-6,5.9c-6.1,0-6,0-5.8,6c0,1.5,0.5,2.1,2,2c2.5-0.1,4.9,0.1,7.4,0c1.9-0.1,2.5,0.7,2.5,2.6c-0.1,7.1-0.2,14.3,0.1,21.4
		c0.4,13.9,14.1,17.6,23.8,14.1c-0.6-2.5-1.1-5-1.7-7.5c-2.1,0-4.1,0-6,0c-4.5-0.1-7-2.7-7.1-7.1c0-1.7,0-3.4,0-5.2
		C454,91,454,85,454,78.7z M544.1,169.8c-7.1-1.1-12.9,0.8-17.6,5.9c-2.9-1.7-5.6-3.2-8.5-4.9c0,15.5,0,30.7,0,45.9
		c2.9,0,5.6,0,8.5,0c0.1-1.1,0.1-2.1,0.2-3c0-8.3,0.1-16.6,0-24.9c0-2.2,0.7-4,2.2-5.5c3.9-4,8.5-6,14.3-5
		C543.4,175.5,543.7,172.9,544.1,169.8z M362.9,116.8c0-13.4,0-26.5,0-39.7c0-6.6,0-6.5-6.5-6.6c-2.1,0-2.6,0.7-2.6,2.7
		c0.1,13.8,0,27.5,0.1,41.3c0,0.7,0.1,1.4,0.1,2.2C356.9,116.8,359.7,116.8,362.9,116.8z M316.8,147.6c-3.3,0-6.2,0-9,0
		c-0.5,0-1.1,0.4-1.3,0.8c-2,4.4-3.9,8.9-6,13.7c1.4,0,2.3,0.1,3.3,0c1.1-0.1,2.8-0.1,3.3-0.8C310.4,157.1,313.4,152.5,316.8,147.6z
		 M364.4,53.9c0-3.4-2.6-6.1-5.9-6.2c-3.3-0.1-6.1,2.7-6.1,6c-0.1,3.4,2.5,6,6,6C361.9,59.8,364.3,57.4,364.4,53.9z"/>
	<path class="st0" d="M570.9,218c-1.2-0.4-2.5-0.7-3.7-1.1c-11.4-3.1-18.7-14.6-17-26.2c1.6-10.5,7.1-17.7,17.5-20.5
		c6.2-1.7,12.2-0.6,17.7,2.7c0.7,0.4,1.3,0.8,2.5,1.5c0-5,0-9.4,0-13.9c0-4.5,0-9,0-13.9c3.2,0,6.2,0,9.2,0c0,23.5,0,47,0,70.4
		c-2.7-1.3-5.4-2.7-8.1-3.9c-0.4-0.2-1.3-0.3-1.6,0c-3.4,2.8-7.4,3.9-11.5,4.9C574.1,218,572.5,218,570.9,218z M587.7,193.6
		c0-2.4,0.1-4.8,0-7.1c0-0.9-0.4-2-0.9-2.6c-4.1-5-11.3-7-17.3-5c-5.9,1.9-10,7.2-10.5,13.8c-0.5,5.9,2.9,11.9,8.3,14.8
		c5.7,3,12.5,2.2,17.5-1.9c2.1-1.7,3.4-3.6,3-6.5C587.5,197.2,587.7,195.4,587.7,193.6z"/>
	<path class="st0" d="M474.3,218c-1-0.3-2-0.6-3-0.9c-11.2-2.8-18.5-13.1-17.7-25.1c0.8-12.4,9.4-21.5,21.8-22.6
		c4.9-0.5,9.6,0.8,13.8,3.6c0.5,0.4,1.1,0.7,1.7,1c0.1,0.1,0.3,0,0.7,0c0.1-1.1,0.3-2.3,0.4-3.6c2.8,0,5.5,0,8.3,0
		c0,15.3,0,30.5,0,46.1c-2.3-1.1-4.6-2-6.8-3.1c-1.3-0.7-2.2-0.4-3.6,0.3c-3.2,1.7-6.7,2.9-10,4.3C477.9,218,476.1,218,474.3,218z
		 M491.2,193.6c0-2.5,0.1-4.9,0-7.4c0-0.8-0.3-1.8-0.9-2.4c-4-4.9-11.2-7-17.1-5.1c-6,1.9-9.9,6.9-10.6,13.7c-0.6,6,2.7,12,8.1,14.9
		c5.8,3,12.4,2.4,17.5-1.8c2-1.6,3.4-3.4,3-6.2C491,197.4,491.2,195.5,491.2,193.6z"/>
	<path class="st0" d="M302.9,218c-1.8-0.5-3.6-0.9-5.4-1.5c-11.8-3.7-17.5-15.6-15.9-26.5c1.4-9.2,5.8-16.1,14.9-19.3
		c13.8-4.9,28.2,4.5,29.5,19.1c0.5,5.6,0.5,5.6-5.3,5.6c-9,0-18.1,0-27.1,0c-1,0-1.9,0-2.8,0c-0.7,4.4,2.4,9.7,7.1,12.4
		c6.3,3.7,13,2.4,21.2-4.1c1.9,1.7,3.7,3.5,5.8,5.5c-3.8,4.6-8.6,7-14.2,8.1c-0.8,0.2-1.6,0.4-2.3,0.6
		C306.5,218,304.7,218,302.9,218z M316.6,187.6c-1.6-6.7-7.3-10.7-14-10.2c-5.3,0.4-10.8,5.4-11.1,10.2
		C299.8,187.6,308.1,187.6,316.6,187.6z"/>
	<path class="st0" d="M357.1,218c-1.5-0.4-3-0.7-4.5-1.1c-12.7-3.6-18.5-15.9-16.7-26.8c1.7-10.6,7.6-17.4,18-19.9
		c13.2-3.3,25.9,4.5,29,17.5c3.2,13.4-4.3,26.2-17.3,29.5c-1.2,0.3-2.4,0.6-3.5,0.9C360.4,218,358.7,218,357.1,218z M374.4,193.6
		c0-8.8-6.5-15.6-14.9-15.6c-8.4,0-14.9,6.9-14.9,15.6c0,8.8,6.5,15.6,14.9,15.6C367.9,209.2,374.4,202.4,374.4,193.6z"/>
	<path class="st0" d="M97.7,146c-6.8,5-13.6,9.6-20.1,14.6c-2.7,2-5.4,2.7-8.6,2.7c-16.6,0.2-29.9-6.8-41-18.6
		c-4.9-5.2-9-11-12.4-17.8c10.6,1.3,20.6,0.6,30.7-3.5c-1.9,5.8-3.6,11.2-5.3,16.6c0.2,0.1,0.4,0.3,0.6,0.4
		c6.4-4.6,12.8-9.3,19.4-14c6.5,4.7,13,9.4,19.4,14.1c0.2-0.1,0.3-0.2,0.5-0.3c-0.4-1.4-0.8-2.9-1.2-4.3c-1.8-5.5-3.5-11.1-5.4-16.5
		c-0.5-1.6-0.4-2.4,1-3.4c5.2-3.6,10.3-7.4,15.4-11.1c0.8-0.6,1.5-1.2,2.9-2.2c-1.4-0.1-2.2-0.3-3.1-0.3c-6.4,0-12.8-0.1-19.2,0
		c-1.8,0-2.7-0.4-3.3-2.3c-1.8-6.1-3.9-12.1-5.9-18.2c-0.2-0.7-0.6-1.4-1.4-2.2c-1.4,4.2-2.8,8.4-4.2,12.6c-0.9,2.6-1.8,5.3-2.5,7.9
		c-0.5,1.6-1.3,2.2-3,2.1c-2.1-0.1-4.3,0-6.4,0c-0.7,0-1.6,0-2.1-0.4c-6.6-4.1-12.1-9.4-16.7-16.2c23.5-1.3,41.4-12.1,55-30.8
		c-4.5-0.8-8.8-1.3-12.7-2.5c-4-1.2-7.7-3.2-11.4-5.2c20.2-3.6,31.3-17.8,41.2-34c9.8,16.1,21,30.5,41.1,33.7
		c-4.5,3.9-11.4,6.1-24.3,7.7c13.7,19.1,31.6,29.7,55.1,31.2c-3,4.7-6.9,8.2-10.7,12c-4.4,4.4-9.6,5.2-15.4,4.4
		c-0.8-0.1-1.8-1.3-2.1-2.1c-2.1-6.1-4.1-12.3-6.1-18.4c-0.2-0.7-0.5-1.5-1-2.9c-1.4,4.1-2.5,7.6-3.7,11c-1.1,3.4-2.4,6.8-3.3,10.3
		c-0.5,1.9-1.4,2.2-3.1,2.2c-6.4-0.1-12.8,0-19.2,0c-0.9,0-1.7,0.1-2.7,0.7c3,2.2,5.9,4.3,8.9,6.5c3,2.2,6.1,4.5,9.2,6.6
		c1.2,0.8,1.3,1.6,0.9,2.8c-2.1,6.2-4.1,12.4-6.1,18.6c-0.3,0.8-0.5,1.7-0.4,2.8c0.8-0.5,1.5-1,2.3-1.6c5.2-3.8,10.5-7.6,15.7-11.5
		c1.2-0.9,2-0.9,3.2,0c5.3,3.9,10.6,7.7,15.9,11.6c0.6,0.5,1.3,0.9,2.5,1.1c-1.7-5.4-3.5-10.8-5.2-16.1c5,1.1,9.9,2.6,14.9,3.1
		c5.1,0.5,10.2,0.1,16.1,0.1c-3.4,4.9-6.3,9.6-9.8,13.9c-8.6,10.7-19.3,18.6-33,21.2c-4.9,0.9-10.1,0.7-15.1,0.8
		c-0.9,0-2-0.7-2.8-1.3c-6.5-4.7-13-9.4-19.5-14.2C99.4,147.1,98.6,146.6,97.7,146z"/>
	<path class="st0" d="M117.2,212.4c3-2.1,6-4.3,8.9-6.4c3.8-2.7,7.5-5.6,11.4-8.2c0.7-0.4,2.1-0.6,2.7-0.1
		c8.6,6.1,17,12.3,25.5,18.5c0.2,0.1,0.3,0.3,0.6,0.7c-45.8,0-91.3,0-137.4,0c3.5-2.6,6.7-4.8,9.8-7.1c5-3.7,10.1-7.2,15.1-11.1
		c2-1.5,3.4-1.8,5.5-0.1c5.6,4.3,11.4,8.4,17.1,12.5c0.6,0.5,1.3,0.9,2.6,1.8c-0.4-1.4-0.6-2.2-0.8-3c-2.3-7.1-4.7-14.3-7-21.4
		c-0.4-1.3-0.3-2.2,0.9-3.1c8.1-5.8,16.2-11.7,24.3-17.6c1-0.8,1.7-0.8,2.8,0c8.1,6,16.3,11.9,24.5,17.8c1.2,0.9,1.2,1.6,0.8,2.8
		c-2.4,7.3-4.8,14.6-7.1,21.9c-0.2,0.6-0.3,1.2-0.5,1.8C116.9,212.1,117.1,212.2,117.2,212.4z"/>
	<path class="st0" d="M235.8,106.8c2.1-2.2,4.2-4.4,6.3-6.6c3.6,4,7.7,7.3,13.1,8.3c5.1,1,9.8,0.4,13.6-3.6
		c3.6-3.9,3.7-9.7-0.3-13.2c-2.4-2.1-5.4-3.7-8.2-5.2c-3.8-2-8-3.4-11.8-5.5c-5.8-3.2-9.6-8-9.9-14.8c-0.3-7.8,3.5-13.3,10.2-16.9
		c8.7-4.6,21.6-2.6,29,4.5c-1.8,2.2-3.5,4.4-5,6.2c-3.7-1.4-7-2.9-10.5-3.8c-3.8-1-7.5,0-10.7,2.4c-4.6,3.5-4.7,9.6-0.1,13
		c2.8,2.1,6.1,3.5,9.2,5.1c4,2.1,8.3,3.7,12,6.1c6.8,4.3,9.1,10.9,8,18.7c-1.1,7.1-5.2,11.9-11.7,14.7
		C258.1,120.8,242.5,116.2,235.8,106.8z"/>
	<path class="st1" d="M327.6,94c0-2.4,0.1-4.8,0-7.1c0-0.9-0.3-2-0.9-2.7c-3.7-4.8-10.9-7.1-16.7-5.4c-6.1,1.7-10.3,6.7-11.1,13
		c-0.8,6.2,2.4,12.5,7.8,15.5c5.5,3.1,12.5,2.5,17.5-1.4c2.3-1.8,4-3.8,3.5-7C327.4,97.3,327.6,95.7,327.6,94z"/>
	<path class="st0" d="M440.7,216.7c-2.7,0-5.5,0-8.7,0c0-1,0-1.9,0-2.7c0-7.5,0.1-15.1,0-22.6c-0.1-8.1-5.8-13.7-13.2-13.3
		c-4.9,0.3-9,2.3-12.1,6.1c-0.6,0.7-0.8,1.9-0.9,2.9c-0.1,8.9,0,17.7,0,26.6c0,1,0,1.9,0,3c-2.9,0-5.6,0-8.6,0c0-15.1,0-30.3,0-45.9
		c2.3,1.1,4.6,2.1,6.8,3.3c1.3,0.7,2.1,0.6,3.3-0.3c13-9.9,31.9-2,33.3,14.2C441.4,197.4,440.7,206.9,440.7,216.7z"/>
	<path class="st0" d="M380.4,116.9c0-15.5,0-30.6,0-46c2.4,1.2,4.6,2.2,6.8,3.3c1.2,0.6,2.1,0.7,3.3-0.2c7-5.2,14.5-5.7,22.2-2
		c7.7,3.7,11.4,10.4,11.6,18.8c0.2,8.6,0,17.2,0,26c-3,0-5.9,0-9.1,0c0-4.6,0-9.1,0-13.6c0-4,0-8,0-12.1
		c-0.1-8.9-7.6-14.6-16.2-12.4c-1.6,0.4-3.3,1.1-4.7,2c-3.5,2-5.5,4.5-5.3,9c0.4,8.2,0.1,16.4,0.2,24.6c0,2-0.4,2.9-2.6,2.7
		C384.7,116.8,382.7,116.9,380.4,116.9z"/>
	<path class="st0" d="M236.2,147.6c2.6,0,4.9,0,7.3,0c0.6,0,1.3,0.1,2.2,0.2c0,1.1,0,2,0,3c0,18,0.1,35.9-0.1,53.9
		c0,2.5,0.7,3.2,3.2,3.1c8.3-0.2,16.6-0.1,24.9-0.1c0.9,0,1.8,0,2.8,0c0,3,0,5.9,0,8.9c-13.4,0-26.8,0-40.3,0
		C236.2,193.7,236.2,170.9,236.2,147.6z"/>
	<path class="st0" d="M454,78.7c0,6.4,0,12.4,0,18.3c0,1.7,0,3.4,0,5.2c0.1,4.4,2.6,7,7.1,7.1c1.9,0,3.9,0,6,0
		c0.5,2.4,1.1,5,1.7,7.5c-9.7,3.5-23.4-0.2-23.8-14.1c-0.2-7.1-0.1-14.3-0.1-21.4c0-1.9-0.6-2.7-2.5-2.6c-2.5,0.1-4.9,0-7.4,0
		c-1.5,0-2-0.5-2-2c-0.2-6-0.2-6,5.8-6c6,0,6,0,6-5.9c0-1.6,0.1-3.1,0-4.7c-0.1-1.8,0.6-2.3,2.3-2.2c2.2,0.1,4.4,0,6.9,0
		c0,3.6,0.1,6.9-0.1,10.1c-0.1,2.3,0.7,2.8,2.8,2.7c3.4-0.1,6.7,0,10.1,0c1.5,0,2,0.5,2,2c0.1,6.1,0.2,6.1-5.8,6.1
		C460.1,78.7,457.1,78.7,454,78.7z"/>
	<path class="st0" d="M544.1,169.8c-0.4,3.1-0.7,5.8-1.1,8.5c-5.8-1-10.4,1-14.3,5c-1.5,1.6-2.2,3.3-2.2,5.5c0.1,8.3,0,16.6,0,24.9
		c0,1-0.1,1.9-0.2,3c-2.9,0-5.6,0-8.5,0c0-15.1,0-30.3,0-45.9c2.8,1.6,5.6,3.2,8.5,4.9C531.2,170.5,537,168.7,544.1,169.8z"/>
	<path class="st0" d="M362.9,116.8c-3.1,0-5.9,0-8.9,0c-0.1-0.8-0.1-1.5-0.1-2.2c0-13.8,0-27.5-0.1-41.3c0-2,0.5-2.7,2.6-2.7
		c6.5,0,6.5-0.1,6.5,6.6C362.9,90.2,362.9,103.3,362.9,116.8z"/>
	<path class="st0" d="M316.8,147.6c-3.4,4.9-6.4,9.4-9.7,13.8c-0.5,0.7-2.2,0.6-3.3,0.8c-0.9,0.1-1.9,0-3.3,0c2.1-4.8,4-9.3,6-13.7
		c0.2-0.4,0.9-0.8,1.3-0.8C310.7,147.6,313.5,147.6,316.8,147.6z"/>
	<path class="st0" d="M364.4,53.9c0,3.5-2.5,5.9-6.1,5.9c-3.5,0-6-2.6-6-6c0.1-3.3,2.9-6.1,6.1-6C361.8,47.8,364.4,50.5,364.4,53.9z
		"/>
</g>
</svg>
