<?xml version="1.0" encoding="utf-8"?>
<!-- Generator: Adobe Illustrator 24.1.1, SVG Export Plug-In . SVG Version: 6.00 Build 0)  -->
<svg version="1.1" id="Calque_1" xmlns="http://www.w3.org/2000/svg" xmlns:xlink="http://www.w3.org/1999/xlink" x="0px" y="0px"
	 viewBox="0 0 768.2 768.2" style="enable-background:new 0 0 768.2 768.2;" xml:space="preserve">
<style type="text/css">
	.st0{display:none;}
	.st1{display:inline;fill:#FFFFFF;}
	.st2{fill:#4D4D4D;}
	.st3{fill:#66CC33;}
</style>
<g id="Layer_1" class="st0">
	<rect x="-365.9" y="-370.9" class="st1" width="1500" height="1500"/>
</g>
<g id="Layer_2">
	<g>
		<path class="st2" d="M596.9,606.9H559L437.9,264.2c12-12.9,19.4-30.1,19.4-49c0-39.8-32.4-72.1-72.1-72.1
			c-39.8,0-72.1,32.4-72.1,72.1c0,18.9,7.4,36.1,19.4,49L211.2,606.9h-37.9c-8,0-14.4,6.5-14.4,14.4v101c0,8,6.5,14.4,14.4,14.4
			h423.6c8,0,14.4-6.5,14.4-14.4v-101C611.3,613.4,604.9,606.9,596.9,606.9z M385.1,287.3c10,0,19.6-2.1,28.3-5.8l54.9,155.2H302
			l54.9-155.2C365.5,285.2,375.1,287.3,385.1,287.3z M385.1,171.9c23.9,0,43.3,19.4,43.3,43.3c0,23.9-19.4,43.3-43.3,43.3
			c-23.9,0-43.3-19.4-43.3-43.3S361.2,171.9,385.1,171.9z M291.8,465.5h186.7l50,141.4H241.8L291.8,465.5z M582.5,707.9H187.7v-72.1
			h394.7v72.1H582.5z"/>
		<path class="st2" d="M168.3,363.7c6.8-4.1,9-13,4.8-19.8c-47.5-78.2-47.5-179.3,0-257.5c4.1-6.8,2-15.7-4.8-19.8
			c-6.8-4.1-15.7-2-19.8,4.8c-53.8,88.6-53.8,198.8,0,287.4c2.7,4.5,7.5,6.9,12.3,6.9C163.4,365.8,166,365.1,168.3,363.7z"/>
		<path class="st2" d="M245,314.7c2.5,0,5.1-0.7,7.5-2.1c6.8-4.1,9-13,4.8-19.8c-28.6-47.2-28.6-108.1,0-155.3
			c4.1-6.8,2-15.7-4.8-19.8c-6.8-4.1-15.7-2-19.8,4.8c-34.7,57.1-34.7,128.1,0,185.2C235.3,312.3,240.1,314.7,245,314.7z"/>
		<path class="st2" d="M84.2,15.5c-6.8-4.1-15.7-2-19.8,4.8C28.9,78.9,10.1,146.2,10.1,215.2c0,68.9,18.8,136.3,54.3,194.8
			c2.7,4.5,7.5,6.9,12.3,6.9c2.5,0,5.1-0.7,7.5-2.1c6.8-4.1,9-13,4.8-19.8C22.7,285.8,22.7,144.6,89,35.4
			C93.2,28.5,91,19.7,84.2,15.5z"/>
		<path class="st2" d="M601.9,66.6c-6.8,4.1-9,13-4.8,19.8c47.5,78.2,47.5,179.3,0,257.5c-4.1,6.8-2,15.7,4.8,19.8
			c2.3,1.4,4.9,2.1,7.5,2.1c4.9,0,9.6-2.5,12.3-6.9c53.8-88.6,53.8-198.8,0-287.4C617.6,64.7,608.7,62.5,601.9,66.6z"/>
		<path class="st2" d="M517.8,312.6c2.3,1.4,4.9,2.1,7.5,2.1c4.9,0,9.6-2.5,12.3-6.9c34.7-57.1,34.7-128.1,0-185.2
			c-4.1-6.8-13-9-19.8-4.8c-6.8,4.1-9,13-4.8,19.8c28.6,47.2,28.6,108.1,0,155.3C508.8,299.6,511,308.5,517.8,312.6z"/>
		<path class="st2" d="M705.8,20.4c-4.1-6.8-13-9-19.8-4.8c-6.8,4.1-9,13-4.8,19.8c66.3,109.2,66.3,250.4,0,359.6
			c-4.1,6.8-2,15.7,4.8,19.8c2.3,1.4,4.9,2.1,7.5,2.1c4.9,0,9.6-2.5,12.3-6.9c35.5-58.5,54.3-125.9,54.3-194.8
			C760.1,146.2,741.3,78.9,705.8,20.4z"/>
	</g>
	<circle class="st3" cx="385.1" cy="215.2" r="43.3"/>
</g>
</svg>
